<?xml version="1.0" encoding="UTF-8"?><svg width="100px" height="100px" viewBox="0 0 100 100" version="1.1" xmlns="http://www.w3.org/2000/svg" xmlns:xlink="http://www.w3.org/1999/xlink">
    <!-- Generator: Sketch 61.1 (89650) - https://sketch.com -->
    <title>logo_symbol</title>
    <desc>Created with Sketch.</desc>
    <defs>
        <polygon id="path-1" points="0.00986405497 0.0235872064 2.05693432 0.0235872064 2.05693432 2.07055215 0.00986405497 2.07055215"></polygon>
        <polygon id="path-3" points="0.0433656268 0.0527868375 2.0904908 0.0527868375 2.0904908 2.10009506 0.0433656268 2.10009506"></polygon>
    </defs>
    <g id="Page-1" stroke="none" stroke-width="1" fill="none" fill-rule="evenodd">
        <g id="Artboard" transform="translate(-28.000000, -39.000000)">
            <g id="logo_symbol" transform="translate(28.000000, 39.000000)">
                <path d="M39.0443252,32.380046 C36.2482362,33.9943865 35.2904141,37.5694632 36.9046779,40.3653988 C38.518865,43.161411 42.0939417,44.1194632 44.8900307,42.5051227 C47.6858896,40.8909356 48.6440184,37.3156288 47.0297546,34.5196933 C45.4154908,31.7237577 41.8401074,30.7658589 39.0443252,32.380046" id="Fill-1" fill="#FF5A5F"></path>
                <path d="M45.6562653,23.0982822 C44.4262807,20.9679908 41.7022009,20.2381595 39.5719862,21.4681442 C37.4416181,22.6980521 36.7119402,25.4219018 37.9418482,27.5521933 C39.1717561,29.6824847 41.8955291,30.4124693 44.0258972,29.1824847 C46.1561887,27.9525767 46.8861733,25.2285736 45.6562653,23.0982822" id="Fill-3" fill="#FF5A5F"></path>
                <path d="M47.663612,16.6675767 C49.1281825,15.8220245 49.6297163,13.9493252 48.7840874,12.4848313 C47.938612,11.0202607 46.066066,10.5184202 44.6015721,11.3639724 C43.1367715,12.2096779 42.6350844,14.0822239 43.4807132,15.5467945 C44.3261887,17.0112883 46.1987347,17.5132822 47.663612,16.6675767" id="Fill-5" fill="#FF5A5F"></path>
                <path d="M51.6879601,7.92891104 C52.7952454,7.28957055 53.1746166,5.87392638 52.5352761,4.7666411 C51.8961656,3.65958589 50.4805215,3.28021472 49.3731595,3.91955521 C48.2661043,4.55874233 47.8868098,5.9743865 48.5259969,7.08136503 C49.1652607,8.18872699 50.5809049,8.56802147 51.6879601,7.92891104" id="Fill-7" fill="#FF5A5F"></path>
                <path d="M54.5595399,1.9093865 C55.0488804,1.62687117 55.2166718,1.00095092 54.9342331,0.511610429 C54.6514877,0.0219631902 54.0255675,-0.145444785 53.536227,0.137070552 C53.0465798,0.419739264 52.8790184,1.04535276 53.1616104,1.535 C53.4442025,2.02434049 54.0698926,2.1921319 54.5595399,1.9093865" id="Fill-9" fill="#FF5A5F"></path>
                <path d="M27.4452837,35.6929064 C29.4317868,37.1434433 32.2182899,36.7090107 33.6688267,34.7225077 C35.1193635,32.7360046 34.6850077,29.9495015 32.6984279,28.498888 C30.7119248,27.0483512 27.9254218,27.4827837 26.474885,29.4692868 C25.0243482,31.4558666 25.458704,34.2423696 27.4452837,35.6929064" id="Fill-11" fill="#FF5A5F"></path>
                <path d="M32.0196242,22.3241488 C33.0168635,20.9583512 32.7182439,19.0425537 31.3526764,18.0452377 C29.9867255,17.0481518 28.0710046,17.3468482 27.0737653,18.7126457 C26.0764494,20.0782899 26.3752991,21.9938574 27.7410199,22.9911733 C29.1065874,23.988566 31.022385,23.6899463 32.0196242,22.3241488" id="Fill-13" fill="#FF5A5F"></path>
                <path d="M30.0298466,13.3563957 C30.783911,12.3238804 30.5580675,10.8757209 29.5256288,10.1218865 C28.4931135,9.36789877 27.044954,9.59366564 26.2909663,10.626181 C25.5369018,11.6586963 25.7627454,13.1068558 26.7952607,13.8608436 C27.8276994,14.6147546 29.2757822,14.388911 30.0298466,13.3563957" id="Fill-15" fill="#FF5A5F"></path>
                <path d="M30.1750153,6.41093558 C30.5082975,5.95449387 30.4084509,5.3143865 29.9520092,4.98110429 C29.4955675,4.64789877 28.8554601,4.74766871 28.5221779,5.20403374 C28.188589,5.66055215 28.2887423,6.30065951 28.7448773,6.63409509 C29.201319,6.96730061 29.8417331,6.8673773 30.1750153,6.41093558" id="Fill-17" fill="#FF5A5F"></path>
                <path d="M35.0725844,18.0990874 C36.2172929,19.3438727 38.1541028,19.4253911 39.3991181,18.2807592 C40.6440567,17.1359739 40.7254985,15.1990107 39.5807899,13.9542255 C38.4363113,12.7090567 36.4991948,12.6277684 35.2542561,13.7725537 C34.0090874,14.9170322 33.9277991,16.8541488 35.0725844,18.0990874" id="Fill-19" fill="#FF5A5F"></path>
                <path d="M40.7306902,9.08820552 C41.6717945,8.2228681 41.7332975,6.75852761 40.8679601,5.81742331 C40.002546,4.87631902 38.5382055,4.81481595 37.5971012,5.68015337 C36.6559202,6.54541411 36.5944939,8.00983129 37.4598313,8.9508589 C38.3251687,9.89196319 39.7895092,9.95346626 40.7306902,9.08820552" id="Fill-21" fill="#FF5A5F"></path>
                <path d="M42.092523,2.9369862 C42.5087807,2.55447086 42.5356979,1.9072316 42.1534126,1.49105061 C41.7708972,1.07502301 41.1235046,1.04787577 40.7075537,1.43023773 C40.2913727,1.81290644 40.2641488,2.46037577 40.6466641,2.87632669 C41.0291794,3.29220092 41.6766488,3.31950153 42.092523,2.9369862" id="Fill-23" fill="#FF5A5F"></path>
                <path d="M25.0506825,26.4359279 C25.5566641,24.8222776 24.6583512,23.1041794 23.0446242,22.5983512 C21.4310506,22.0922929 19.7128758,22.9904525 19.2068942,24.6041794 C18.701296,26.2178298 19.5993021,27.9360813 21.2127991,28.4420629 C22.8265261,28.9478144 24.5447776,28.0498083 25.0506825,26.4359279" id="Fill-25" fill="#FF5A5F"></path>
                <path d="M21.6246319,18.8034663 C22.0068405,17.5836043 21.3278528,16.2846012 20.1080675,15.9021626 C18.8882822,15.5197239 17.5892791,16.1987117 17.2068405,17.418727 C16.8244785,18.6385123 17.5034663,19.9374387 18.7233282,20.3198773 C19.9430368,20.702316 21.2420399,20.0233282 21.6246319,18.8034663" id="Fill-27" fill="#FF5A5F"></path>
                <path d="M19.7285736,12.7953221 C19.8977454,12.2559816 19.5972853,11.6818252 19.0580215,11.5128834 C18.5189877,11.343635 17.9446779,11.643865 17.7755828,12.1832055 C17.606411,12.7224693 17.9065644,13.2968558 18.4458282,13.4657975 C18.9851687,13.634816 19.5594018,13.3345859 19.7285736,12.7953221" id="Fill-29" fill="#FF5A5F"></path>
                <path d="M28.8839187,49.9783896 C28.8839187,53.2070706 31.5010966,55.8241718 34.7296242,55.8241718 C37.9580752,55.8241718 40.5753298,53.2070706 40.5753298,49.9783896 C40.5753298,46.750092 37.9580752,44.132684 34.7296242,44.132684 C31.5010966,44.132684 28.8839187,46.750092 28.8839187,49.9783896" id="Fill-31" fill="#FF5A5F"></path>
                <path d="M24.1516334,39.611434 C21.6917408,39.611434 19.6976457,41.6056058 19.6976457,44.0654985 C19.6976457,46.5253911 21.6917408,48.5192561 24.1516334,48.5192561 C26.6115261,48.5192561 28.6055445,46.5253911 28.6055445,44.0654985 C28.6055445,41.6056058 26.6115261,39.611434 24.1516334,39.611434" id="Fill-33" fill="#FF5A5F"></path>
                <path d="M19.5861273,34.6576687 C19.5861273,32.9665644 18.215115,31.5958589 16.5240107,31.5958589 C14.8329064,31.5958589 13.4620475,32.9665644 13.4620475,34.6576687 C13.4620475,36.3490798 14.8329064,37.7197853 16.5240107,37.7197853 C18.215115,37.7197853 19.5861273,36.3490798 19.5861273,34.6576687" id="Fill-35" fill="#FF5A5F"></path>
                <path d="M14.0303988,26.8031135 C14.0303988,25.5245092 12.9940491,24.4881595 11.7154448,24.4881595 C10.4371472,24.4881595 9.40079755,25.5245092 9.40079755,26.8031135 C9.40079755,28.081411 10.4371472,29.1177607 11.7154448,29.1177607 C12.9940491,29.1177607 14.0303988,28.081411 14.0303988,26.8031135" id="Fill-37" fill="#FF5A5F"></path>
                <path d="M10.2531825,21.3065107 C10.2531825,20.7414801 9.79497699,20.2831212 9.22994632,20.2831212 C8.6646089,20.2831212 8.20663344,20.7414801 8.20663344,21.3065107 C8.20663344,21.8719248 8.6646089,22.3299003 9.22994632,22.3299003 C9.79497699,22.3299003 10.2531825,21.8719248 10.2531825,21.3065107" id="Fill-39" fill="#FF5A5F"></path>
                <path d="M25.9534049,61.6799156 C28.2028681,60.6847469 29.2198926,58.0544555 28.2248006,55.8049156 C27.2297086,53.5554525 24.5993405,52.5384279 22.3498773,53.5335199 C20.1003374,54.5286887 19.0833129,57.1589801 20.0784049,59.4085199 C21.0735736,61.6579831 23.7039417,62.6750077 25.9534049,61.6799156" id="Fill-41" fill="#FF5A5F"></path>
                <path d="M16.6628834,51.0339954 C15.9787577,49.4874463 14.1703221,48.7882132 12.623773,49.4721856 C11.0773006,50.1565414 10.3781442,51.964977 11.0622699,53.5115261 C11.746319,55.0579985 13.5547546,55.7570015 15.101227,55.0729525 C16.6477761,54.3889801 17.3470859,52.5805445 16.6628834,51.0339954" id="Fill-43" fill="#FF5A5F"></path>
                <path d="M7.90171779,48.2733359 C7.38453988,47.1040107 6.01751534,46.5755598 4.84842025,47.0927377 C3.67917178,47.6099156 3.15064417,48.9769402 3.66782209,50.1461887 C4.185,51.3155138 5.55202454,51.8439647 6.72127301,51.3267868 C7.89044479,50.8096856 8.41889571,49.4425844 7.90171779,48.2733359" id="Fill-45" fill="#FF5A5F"></path>
                <path d="M1.9593635,44.6749233 C1.73068252,44.1580521 1.12646472,43.9243865 0.609593558,44.1530675 C0.0927990798,44.3817485 -0.140866564,44.9860429 0.0877377301,45.5028374 C0.316265337,46.0200153 0.92071319,46.2533742 1.43750767,46.025 C1.95437883,45.796319 2.18804448,45.1917178 1.9593635,44.6749233" id="Fill-47" fill="#FF5A5F"></path>
                <path d="M14.5303604,46.2775613 C16.1807439,45.9086196 17.2197009,44.2720399 16.8509893,42.6215031 C16.4820475,40.9709663 14.8452377,39.9319325 13.1948543,40.3008742 C11.5443175,40.6695092 10.5053604,42.3063957 10.8743021,43.9569325 C11.2428604,45.607546 12.8798236,46.6465031 14.5303604,46.2775613" id="Fill-49" fill="#FF5A5F"></path>
                <path d="M9.55577454,36.8720782 C9.27694018,35.6243021 8.03951687,34.8389494 6.79181748,35.1178604 C5.54404141,35.3966948 4.75868865,36.6340414 5.03752301,37.8818175 C5.31620399,39.1295169 6.55378067,39.9148696 7.80140337,39.6360353 C9.04910276,39.3572009 9.83445552,38.1197776 9.55577454,36.8720782" id="Fill-51" fill="#FF5A5F"></path>
                <path d="M4.90957055,32.6170706 C4.78641104,32.0653067 4.23932515,31.7182975 3.68779141,31.8413037 C3.13618098,31.9646166 2.78909509,32.5117025 2.91217791,33.0630828 C3.0354908,33.6148466 3.58257669,33.9621626 4.13418712,33.8388497 C4.68556748,33.7155368 5.03288344,33.1684509 4.90957055,32.6170706" id="Fill-53" fill="#FF5A5F"></path>
                <path d="M16.7393482,59.1251994 C15.5948696,57.880184 13.6577531,57.7990491 12.4128911,58.9437577 C11.1678758,60.0880828 11.0865874,62.0251227 12.231066,63.2702147 C13.3757745,64.5149233 15.3128144,64.596365 16.5576764,63.4519632 C17.802615,62.3073313 17.8840567,60.3702914 16.7393482,59.1251994" id="Fill-55" fill="#FF5A5F"></path>
                <path d="M8.41639571,58.2760276 C7.55105828,57.3350767 6.0866411,57.2735736 5.14553681,58.1387577 C4.20443252,59.0039417 4.14292945,60.4682822 5.00826687,61.4096166 C5.87345092,62.3505675 7.3378681,62.4120706 8.27897239,61.5468865 C9.22007669,60.6817025 9.28157975,59.2172853 8.41639571,58.2760276" id="Fill-57" fill="#FF5A5F"></path>
                <path d="M2.26513804,56.9139647 C1.88269939,56.4978604 1.23523006,56.4709433 0.819279141,56.8534586 C0.40309816,57.2356672 0.376027607,57.8831365 0.758542945,58.2992408 C1.1409816,58.7154218 1.78845092,58.7426457 2.20440184,58.3601304 C2.62042945,57.9775383 2.64765337,57.330069 2.26513804,56.9139647" id="Fill-59" fill="#FF5A5F"></path>
                <path d="M39.0443252,67.5767715 C41.8404141,69.191112 45.4154908,68.2330598 47.0297546,65.4371242 C48.6440184,62.641112 47.6861196,59.0660353 44.8900307,57.4516948 C42.0942485,55.8375077 38.518865,56.7954064 36.9046779,59.591342 C35.2904141,62.3873543 36.2485429,65.9625844 39.0443252,67.5767715" id="Fill-61" fill="#FF5A5F"></path>
                <path d="M27.7000997,66.4915491 C26.4701917,68.6218405 27.2001764,71.3458436 29.3304678,72.5758282 C31.4608359,73.8057362 34.1846089,73.0757515 35.4145169,70.9454601 C36.6444248,68.8151687 35.9147469,66.091319 33.7843788,64.861411 C31.6541641,63.6315031 28.9300844,64.3612577 27.7000997,66.4915491" id="Fill-63" fill="#FF5A5F"></path>
                <path d="M21.1272853,67.9684816 C19.6627147,67.1229294 17.7901687,67.6249233 16.9446166,69.0894939 C16.0990644,70.5539877 16.6007515,72.4265337 18.0652454,73.2720859 C19.530046,74.1177914 21.4025153,73.6159509 22.2480675,72.1513804 C23.0936196,70.6868865 22.5920859,68.8141871 21.1272853,67.9684816" id="Fill-65" fill="#FF5A5F"></path>
                <path d="M11.5472009,68.8526304 C10.4399156,68.2132899 9.02427147,68.592661 8.38493098,69.6999463 C7.74574387,70.8070015 8.12511503,72.2226457 9.23240031,72.8619862 C10.3394555,73.5010966 11.7550997,73.1218021 12.3942101,72.0147469 C13.0335506,70.907385 12.6542561,69.4917408 11.5472009,68.8526304" id="Fill-67" fill="#FF5A5F"></path>
                <path d="M4.89837423,69.3755138 C4.40903374,69.0929985 3.78303681,69.2606365 3.50052147,69.749977 C3.21785276,70.2396242 3.38572086,70.8653911 3.87506135,71.1479064 C4.36470859,71.4305752 4.99032209,71.2629371 5.27306748,70.7733666 C5.55550613,70.2840261 5.38802147,69.6581825 4.89837423,69.3755138" id="Fill-69" fill="#FF5A5F"></path>
                <path d="M47.7128911,75.9653988 C47.9758512,73.5197699 46.2063727,71.3237577 43.7606672,71.0607975 C41.3150383,70.7979141 39.1191028,72.567316 38.8561426,75.0130215 C38.5931825,77.4586503 40.3625844,79.6545859 42.8082899,79.9176227 C45.2539954,80.1805061 47.449931,78.4111043 47.7128911,75.9653988" id="Fill-71" fill="#FF5A5F"></path>
                <path d="M33.8479831,78.6882822 C32.1666181,78.5075307 30.6567255,79.7240184 30.4758972,81.4053834 C30.2952991,83.0868252 31.5118635,84.5964877 33.1932285,84.777316 C34.8745936,84.9581442 36.3841028,83.7415031 36.5650077,82.060138 C36.7459126,80.3788497 35.5294248,78.8690337 33.8479831,78.6882822" id="Fill-73" fill="#FF5A5F"></path>
                <path d="M27.0766028,84.8953298 C25.8053604,84.7585966 24.6641794,85.6782285 24.527523,86.9493175 C24.3907899,88.2204064 25.3104218,89.3616641 26.5815874,89.4983972 C27.8528298,89.6352837 28.9940107,88.7154985 29.1308206,87.4443328 C29.267477,86.1733206 28.3477684,85.0320629 27.0766028,84.8953298" id="Fill-75" fill="#FF5A5F"></path>
                <path d="M20.9890798,88.2423773 C20.4271166,88.1820245 19.9226687,88.5884663 19.862316,89.1503528 C19.8019632,89.712316 20.2084049,90.2167638 20.7702914,90.2771933 C21.3324847,90.3378528 21.8367025,89.9311043 21.897362,89.3692945 C21.9577914,88.807408 21.5510429,88.3027301 20.9890798,88.2423773" id="Fill-77" fill="#FF5A5F"></path>
                <path d="M28.662546,78.1569018 C29.1682209,76.5431748 28.2703681,74.8250767 26.6565644,74.3191718 C25.042684,73.8133436 23.3245092,74.7113497 22.8188344,76.3250767 C22.3127761,77.9388037 23.2109356,79.6570552 24.824816,80.1628067 C26.4385429,80.668865 28.1567178,79.7707822 28.662546,78.1569018" id="Fill-79" fill="#FF5A5F"></path>
                <path d="M18.0298466,77.7622699 C16.8098313,77.379908 15.5109816,78.058819 15.1286196,79.2788344 C14.7462577,80.4988497 15.4251687,81.7976994 16.645184,82.1799847 C17.8651227,82.5625 19.1640491,81.8834356 19.5463344,80.6635736 C19.9286963,79.443635 19.2497086,78.1447853 18.0298466,77.7622699" id="Fill-81" fill="#FF5A5F"></path>
                <path d="M12.0218175,79.6584739 C11.4824003,79.4892255 10.9083206,79.7895322 10.7390721,80.3287193 C10.5700537,80.8679831 10.8702837,81.4422163 11.4093942,81.6112347 C11.948888,81.7803298 12.5231979,81.4802531 12.6922163,80.9409126 C12.8610813,80.4017255 12.5610046,79.8274156 12.0218175,79.6584739" id="Fill-83" fill="#FF5A5F"></path>
                <path d="M40.8933896,82.667661 C39.2429294,83.036296 38.2041258,84.6732592 38.5729908,86.323796 C38.9415491,87.9741794 40.5784356,89.0130598 42.2289724,88.6445015 C43.8792791,88.2754831 44.9183129,86.6385966 44.5496779,84.9883666 C44.1808129,83.3379064 42.5440031,82.2988727 40.8933896,82.667661" id="Fill-85" fill="#FF5A5F"></path>
                <path d="M35.9964954,89.4509509 C34.7489494,89.729862 33.9635199,90.967362 34.2422009,92.2149847 C34.5208819,93.4626074 35.7583819,94.2480368 37.0062347,93.9692791 C38.253704,93.6904448 39.0391334,92.4529448 38.7604525,91.2053988 C38.4817715,89.9577761 37.2442715,89.1723466 35.9964954,89.4509509" id="Fill-87" fill="#FF5A5F"></path>
                <path d="M31.7413344,94.0970399 C31.1897239,94.2201994 30.842638,94.7675153 30.9660276,95.3190491 C31.0889571,95.8705061 31.6361196,96.2176687 32.1877301,96.0945092 C32.7393405,95.971273 33.0866564,95.4242638 32.9633436,94.8727301 C32.8400307,94.3211963 32.2929448,93.9739571 31.7413344,94.0970399" id="Fill-89" fill="#FF5A5F"></path>
                <path d="M52.7531979,76.8585353 C53.9831825,78.9888267 56.7072623,79.718658 58.8375537,78.4886733 C60.9678451,77.2587653 61.6975997,74.5349156 60.4676917,72.4046242 C59.2377071,70.2743328 56.513934,69.5443482 54.3836426,70.7743328 C52.2532745,72.0042408 51.5232899,74.7282439 52.7531979,76.8585353" id="Fill-91" fill="#FF5A5F"></path>
                <path d="M50.7458512,83.2892485 C49.2813574,84.1347239 48.7797469,86.0074233 49.6253758,87.4719939 C50.4709279,88.9365644 52.3433972,89.4384049 53.8079678,88.5928528 C55.2726917,87.7471472 55.7743788,85.8746012 54.9288267,84.4100307 C54.0832745,82.9455368 52.2107285,82.4435429 50.7458512,83.2892485" id="Fill-93" fill="#FF5A5F"></path>
                <path d="M46.7215337,92.0279064 C45.6142485,92.6672469 45.2348773,94.0828911 45.8742178,95.1901764 C46.5133282,96.2972316 47.9290491,96.6765261 49.0363344,96.0371856 C50.1433896,95.3980752 50.522684,93.982431 49.8834969,92.8754525 C49.2442331,91.7680905 47.828589,91.388796 46.7215337,92.0279064" id="Fill-95" fill="#FF5A5F"></path>
                <g id="Group-99" transform="translate(43.328221, 97.886503)">
                    <mask id="mask-2" fill="white">
                        <use xlink:href="#path-1"></use>
                    </mask>
                    <g id="Clip-98"></g>
                    <path d="M0.521740798,0.160897239 C0.0324003067,0.443489264 -0.135467791,1.06940951 0.147047546,1.55875 C0.429716258,2.04832055 1.0556365,2.21580521 1.54505368,1.93328988 C2.03462423,1.65062117 2.20226227,1.02500767 1.91959356,0.535360429 C1.63707822,0.0460199387 1.01138804,-0.121771472 0.521740798,0.160897239" id="Fill-97" fill="#FF5A5F" mask="url(#mask-2)"></path>
                </g>
                <path d="M70.9642178,64.263911 C68.9777147,62.8133742 66.1912117,63.2478067 64.7406748,65.2343098 C63.290138,67.2208129 63.7244939,70.007316 65.7109969,71.4578528 C67.6975,72.9084663 70.4840031,72.4740337 71.9345399,70.487454 C73.3851534,68.5009509 72.9507209,65.7144479 70.9642178,64.263911" id="Fill-100" fill="#FF5A5F"></path>
                <path d="M66.3898696,77.6326687 C65.3926304,78.9984663 65.69125,80.9142638 67.0568175,81.9115031 C68.4227684,82.9086656 70.3384893,82.6099693 71.3357285,81.2441718 C72.3330445,79.8785276 72.0341948,77.9629601 70.6684739,76.9655675 C69.3028298,75.9682515 67.3871089,76.2668712 66.3898696,77.6326687" id="Fill-102" fill="#FF5A5F"></path>
                <path d="M68.3796166,86.6004218 C67.6255521,87.6329371 67.8513957,89.0810966 68.8838344,89.8350077 C69.9163497,90.5889187 71.3645092,90.3631518 72.1185736,89.3306365 C72.872638,88.2981212 72.6467945,86.8499617 71.6142791,86.0959739 C70.5818405,85.3420629 69.133681,85.5679064 68.3796166,86.6004218" id="Fill-104" fill="#FF5A5F"></path>
                <path d="M68.2344785,93.5458512 C67.9011963,94.0022929 68.0009663,94.642477 68.457408,94.9757592 C68.9138497,95.3089647 69.5540337,95.2091181 69.887316,94.7527531 C70.2209049,94.2962347 70.1207515,93.6561273 69.6645399,93.3227684 C69.2080982,92.9894862 68.5677607,93.0894095 68.2344785,93.5458512" id="Fill-106" fill="#FF5A5F"></path>
                <path d="M63.3369172,81.8577301 C62.1922086,80.6129448 60.2553988,80.5314264 59.0103834,81.6760583 C57.7654448,82.8208436 57.6840031,84.7578067 58.8287117,86.0026687 C59.9731902,87.2477607 61.9102301,87.3290491 63.1552454,86.1842638 C64.4003374,85.0397853 64.4817025,83.1026687 63.3369172,81.8577301" id="Fill-108" fill="#FF5A5F"></path>
                <path d="M57.678842,90.868612 C56.7377377,91.7339494 56.6762347,93.1982899 57.5415721,94.1393942 C58.4069095,95.0804985 59.87125,95.1420015 60.8123543,94.2765874 C61.753612,93.4114034 61.8150383,91.9469862 60.9497009,91.0059586 C60.0843635,90.0648543 58.6199463,90.0034279 57.678842,90.868612" id="Fill-110" fill="#FF5A5F"></path>
                <path d="M56.3169785,97.0198313 C55.9007209,97.4023466 55.8738037,98.0496626 56.2560123,98.4657669 C56.6386043,98.8817945 57.2859969,98.9089417 57.7019479,98.5265031 C58.1180521,98.143911 58.1453528,97.4965184 57.7628374,97.0804141 C57.3802454,96.6645399 56.7328528,96.637316 56.3169785,97.0198313" id="Fill-112" fill="#FF5A5F"></path>
                <path d="M73.3588113,73.5208512 C72.8527531,75.1345782 73.751066,76.8526764 75.3648696,77.3584279 C76.9784433,77.8644862 78.6966181,76.9663267 79.2025997,75.3526764 C79.7081979,73.7389494 78.8101917,72.0206979 77.1967715,71.5147929 C75.5829678,71.0090414 73.8647163,71.9070475 73.3588113,73.5208512" id="Fill-114" fill="#FF5A5F"></path>
                <path d="M76.7848696,81.1533512 C76.402661,82.3732132 77.0815721,83.6721396 78.3013574,84.0546549 C79.5212193,84.4370936 80.8201457,83.7581058 81.202661,82.5380905 C81.585023,81.3183052 80.9059586,80.0193788 79.68625,79.6369402 C78.4664647,79.2545015 77.167385,79.9334126 76.7848696,81.1533512" id="Fill-116" fill="#FF5A5F"></path>
                <path d="M78.6809356,87.1614954 C78.5117638,87.7007592 78.8122239,88.2749923 79.3514877,88.443934 C79.8905215,88.6131825 80.4648313,88.3129525 80.6340031,87.773612 C80.8030982,87.2343482 80.5029448,86.6599617 79.963681,86.4910199 C79.4243405,86.3220015 78.8500307,86.6222316 78.6809356,87.1614954" id="Fill-118" fill="#FF5A5F"></path>
                <path d="M69.5255828,49.9783896 C69.5255828,46.7497853 66.9083282,44.132684 63.6798006,44.132684 C60.4514264,44.132684 57.8341718,46.7497853 57.8341718,49.9783896 C57.8341718,53.2066871 60.4514264,55.8241718 63.6798006,55.8241718 C66.9083282,55.8241718 69.5255828,53.2066871 69.5255828,49.9783896" id="Fill-120" fill="#FF5A5F"></path>
                <path d="M74.2578681,60.3453758 C76.7177607,60.3453758 78.7117791,58.351204 78.7117791,55.8913113 C78.7117791,53.4314187 76.7177607,51.4375537 74.2578681,51.4375537 C71.7979755,51.4375537 69.8039571,53.4314187 69.8039571,55.8913113 C69.8039571,58.351204 71.7979755,60.3453758 74.2578681,60.3453758" id="Fill-122" fill="#FF5A5F"></path>
                <path d="M78.8233742,65.2991488 C78.8233742,66.9902531 80.1943865,68.3609586 81.8854908,68.3609586 C83.5765184,68.3609586 84.9473773,66.9902531 84.9473773,65.2991488 C84.9473773,63.6077377 83.5765184,62.2370322 81.8854908,62.2370322 C80.1943865,62.2370322 78.8233742,63.6077377 78.8233742,65.2991488" id="Fill-124" fill="#FF5A5F"></path>
                <path d="M84.3790721,73.153704 C84.3790721,74.4323083 85.4154218,75.468658 86.6940261,75.468658 C87.9723236,75.468658 89.0086733,74.4323083 89.0086733,73.153704 C89.0086733,71.8754064 87.9723236,70.8390567 86.6940261,70.8390567 C85.4154218,70.8390567 84.3790721,71.8754064 84.3790721,73.153704" id="Fill-126" fill="#FF5A5F"></path>
                <path d="M88.156365,78.6502761 C88.156365,79.2153067 88.6145706,79.6736656 89.1795245,79.6736656 C89.7449387,79.6736656 90.2029141,79.2153067 90.2029141,78.6502761 C90.2029141,78.0849387 89.7449387,77.6268865 89.1795245,77.6268865 C88.6145706,77.6268865 88.156365,78.0849387 88.156365,78.6502761" id="Fill-128" fill="#FF5A5F"></path>
                <path d="M72.4560966,38.2769018 C70.2066334,39.2719939 69.1895322,41.902362 70.1847009,44.1518252 C71.1797929,46.401365 73.810161,47.4183896 76.0596242,46.4232975 C78.3090874,45.4281288 79.3261887,42.7978374 78.3310199,40.5482975 C77.3359279,38.2988344 74.7055598,37.2818098 72.4560966,38.2769018" id="Fill-130" fill="#FF5A5F"></path>
                <path d="M81.7466258,48.9228144 C82.4307515,50.4693635 84.2391871,51.1685966 85.7857362,50.4846242 C87.3322086,49.8002684 88.031365,47.9918328 87.3471626,46.4452837 C86.6631902,44.8988113 84.8547546,44.1998083 83.3082055,44.8838574 C81.7616564,45.5678298 81.0624233,47.3762653 81.7466258,48.9228144" id="Fill-132" fill="#FF5A5F"></path>
                <path d="M90.5077531,51.6834816 C91.024931,52.8528067 92.3919555,53.3812577 93.5610506,52.8640798 C94.7302991,52.3469018 95.2588267,50.9798773 94.7416488,49.8105521 C94.2245475,48.6413037 92.857523,48.1127761 91.6881979,48.6300307 C90.5190261,49.1471319 89.9906518,50.5141564 90.5077531,51.6834816" id="Fill-134" fill="#FF5A5F"></path>
                <g id="Group-138" transform="translate(96.319018, 53.791411)">
                    <mask id="mask-4" fill="white">
                        <use xlink:href="#path-3"></use>
                    </mask>
                    <g id="Clip-137"></g>
                    <path d="M0.131088957,1.49048313 C0.359769939,2.00735429 0.96398773,2.24101994 1.48093558,2.01233896 C1.99773006,1.78365798 2.23139571,1.1793635 2.00279141,0.662569018 C1.77418712,0.145391104 1.16981595,-0.0879677914 0.652944785,0.140406442 C0.13607362,0.369087423 -0.0975153374,0.97368865 0.131088957,1.49048313" id="Fill-136" fill="#FF5A5F" mask="url(#mask-4)"></path>
                </g>
                <path d="M83.8791104,53.6792561 C82.228727,54.0481979 81.1897699,55.6847776 81.5585583,57.3353144 C81.9275,58.9858512 83.5642331,60.024885 85.2146166,59.6559433 C86.8651534,59.2873083 87.9041104,57.6504218 87.5352454,55.999885 C87.1666104,54.3492715 85.5296472,53.3103144 83.8791104,53.6792561" id="Fill-139" fill="#FF5A5F"></path>
                <path d="M88.8537347,63.0847393 C89.132569,64.3325153 90.3699923,65.1178681 91.6176917,64.8389571 C92.8654678,64.5601227 93.6508206,63.3227761 93.3719862,62.075 C93.0932285,60.8273006 91.8557285,60.0418712 90.6081058,60.3207055 C89.3604064,60.5996166 88.574977,61.8370399 88.8537347,63.0847393" id="Fill-141" fill="#FF5A5F"></path>
                <path d="M93.4998926,67.3397469 C93.6230521,67.891434 94.170138,68.2384433 94.7217485,68.1155138 C95.2732822,67.9922009 95.6204448,67.445115 95.4972853,66.8937347 C95.3739724,66.3419709 94.8269632,65.9946549 94.2752761,66.1179678 C93.7239724,66.2412807 93.3766564,66.7883666 93.4998926,67.3397469" id="Fill-143" fill="#FF5A5F"></path>
                <path d="M81.670161,40.8316181 C82.8147163,42.0766334 84.7517561,42.1577684 85.9966181,41.0130598 C87.2416334,39.8687347 87.3229218,37.9316948 86.1783666,36.6866028 C85.0337347,35.4418942 83.0966948,35.3604525 81.8517561,36.5048543 C80.6068942,37.6494862 80.5254525,39.5865261 81.670161,40.8316181" id="Fill-145" fill="#FF5A5F"></path>
                <path d="M89.9931058,41.6807899 C90.8583666,42.6217408 92.3228604,42.6832439 93.263888,41.8180598 C94.205069,40.9528758 94.2665721,39.4884586 93.401158,38.5472009 C92.5360506,37.60625 91.0715567,37.5447469 90.1305291,38.409931 C89.1894248,39.275115 89.1279218,40.7395322 89.9931058,41.6807899" id="Fill-147" fill="#FF5A5F"></path>
                <path d="M96.1443252,43.0428451 C96.5267638,43.4589494 97.1743098,43.4858666 97.590184,43.1033512 C98.006365,42.7211426 98.0334356,42.0736733 97.6509202,41.657569 C97.2684816,41.241388 96.6210123,41.2141641 96.2050613,41.5966794 C95.7890337,41.9792715 95.7618865,42.6267408 96.1443252,43.0428451" id="Fill-149" fill="#FF5A5F"></path>
                <path d="M59.365138,32.380046 C56.5690491,30.7657055 52.9939724,31.7237577 51.3797853,34.5196933 C49.7655215,37.3156288 50.7234202,40.8907822 53.5194325,42.5051227 C56.3152147,44.1193098 59.8906748,43.161411 61.5047853,40.3653988 C63.1190491,37.5694632 62.1609969,33.9941564 59.365138,32.380046" id="Fill-151" fill="#FF5A5F"></path>
                <path d="M70.7093635,33.4652684 C71.9392715,31.334977 71.2093635,28.6109739 69.0789954,27.3809893 C66.948704,26.1510813 64.2248543,26.881066 62.9949463,29.0113574 C61.7650383,31.1416488 62.4947929,33.8654985 64.6250844,35.0954064 C66.7553758,36.3253144 69.4794555,35.5955598 70.7093635,33.4652684" id="Fill-153" fill="#FF5A5F"></path>
                <path d="M77.2822163,31.9883359 C78.7467868,32.833888 80.6193328,32.3318942 81.464885,30.8673236 C82.3103604,29.4028298 81.80875,27.5302837 80.3442561,26.6847316 C78.8793788,25.8390261 77.0069095,26.3408666 76.161434,27.8053604 C75.3158052,29.269931 75.817339,31.1426304 77.2822163,31.9883359" id="Fill-155" fill="#FF5A5F"></path>
                <path d="M86.8622699,31.1041871 C87.9695552,31.7434509 89.3852761,31.3641564 90.0245399,30.2568712 C90.663727,29.149816 90.2844325,27.7341718 89.1771472,27.0948313 C88.0700153,26.4557209 86.6543712,26.8350153 86.0152607,27.9420706 C85.3759202,29.0494325 85.7552147,30.4650767 86.8622699,31.1041871" id="Fill-157" fill="#FF5A5F"></path>
                <path d="M93.5111273,30.5813037 C94.0004678,30.863819 94.6264647,30.696181 94.9089801,30.2068405 C95.1916488,29.7171933 95.0237807,29.0914264 94.5344402,28.808911 C94.0447929,28.5262423 93.4191794,28.6938804 93.136434,29.1834509 C92.8539954,29.6727914 93.0214801,30.2985583 93.5111273,30.5813037" id="Fill-159" fill="#FF5A5F"></path>
                <path d="M50.6966488,23.9913804 C50.4336887,26.4370859 52.2031672,28.6330215 54.648796,28.8959816 C57.0945015,29.1589417 59.2904371,27.3895399 59.5533206,24.9438344 C59.8163574,22.4981288 58.0468788,20.3021933 55.6011733,20.0392331 C53.1555445,19.776273 50.9596089,21.5457515 50.6966488,23.9913804" id="Fill-161" fill="#FF5A5F"></path>
                <path d="M64.5615107,21.2685353 C66.2428758,21.4492868 67.7526917,20.2327991 67.9335966,18.551434 C68.1141948,16.8699923 66.8976304,15.3602531 65.2161887,15.1795782 C63.5349003,14.9986733 62.0253911,16.2153144 61.8444095,17.8966028 C61.6635813,19.5779678 62.880069,21.0877837 64.5615107,21.2685353" id="Fill-163" fill="#FF5A5F"></path>
                <path d="M71.3328988,15.0614494 C72.6040644,15.1982592 73.7453221,14.2785506 73.8819785,13.0074617 C74.018635,11.7363727 73.0990798,10.595115 71.8278374,10.4583819 C70.5566718,10.3215721 69.4154908,11.2412807 69.2787577,12.5124463 C69.1421012,13.7835353 70.0617331,14.9247163 71.3328988,15.0614494" id="Fill-165" fill="#FF5A5F"></path>
                <path d="M77.4203834,11.7144402 C77.9822699,11.7748696 78.4867945,11.3683512 78.5471472,10.8064647 C78.6075767,10.2445015 78.201135,9.74005368 77.6392485,9.67954755 C77.0769785,9.61896472 76.5727607,10.0257132 76.5121012,10.587523 C76.4516718,11.1494095 76.8584969,11.6540874 77.4203834,11.7144402" id="Fill-167" fill="#FF5A5F"></path>
                <path d="M69.7469555,21.7999156 C69.2412807,23.4136426 70.1390567,25.1317408 71.7528604,25.6376457 C73.3668175,26.1433972 75.0849156,25.2454678 75.5905905,23.6317408 C76.0967255,22.0180138 75.198566,20.2997623 73.5846856,19.793934 C71.9709586,19.2878758 70.2527837,20.1860353 69.7469555,21.7999156" id="Fill-169" fill="#FF5A5F"></path>
                <path d="M80.3796626,22.1945475 C81.5996012,22.5769095 82.8985276,21.8979985 83.2808896,20.6779831 C83.6631748,19.4579678 82.9843405,18.1591181 81.7643252,17.7767561 C80.5443865,17.3942408 79.2454601,18.0733819 78.8632515,19.2932439 C78.4808129,20.5131825 79.1598006,21.8120322 80.3796626,22.1945475" id="Fill-171" fill="#FF5A5F"></path>
                <path d="M86.3876917,20.2983436 C86.9270322,20.467592 87.5011887,20.1672853 87.6704371,19.6280982 C87.8394555,19.0887577 87.5392255,18.5146012 87.0000383,18.3455061 C86.4606212,18.1764877 85.8863113,18.4765644 85.7172929,19.0159049 C85.5484279,19.555092 85.8485046,20.1294018 86.3876917,20.2983436" id="Fill-173" fill="#FF5A5F"></path>
                <path d="M57.516112,17.2891564 C59.1665721,16.9204448 60.2052991,15.2834816 59.8365107,13.6330982 C59.4679525,11.982638 57.831066,10.9437577 56.1805291,11.3123926 C54.5302224,11.6813344 53.4912653,13.3181442 53.8597469,14.9684509 C54.2286887,16.618911 55.8654985,17.6579448 57.516112,17.2891564" id="Fill-175" fill="#FF5A5F"></path>
                <path d="M62.4129985,10.5058666 C63.6605445,10.2269555 64.4459739,8.98945552 64.1672929,7.74190951 C63.8885353,6.49421012 62.6510353,5.70878067 61.4032592,5.98753834 C60.1557899,6.26629601 59.3703604,7.50379601 59.6490414,8.75141871 C59.9277224,9.99904141 61.1652224,10.7844709 62.4129985,10.5058666" id="Fill-177" fill="#FF5A5F"></path>
                <path d="M66.6681595,5.85974693 C67.2197699,5.73658742 67.5668558,5.18934816 67.4434663,4.63781442 C67.3205368,4.08635736 66.7733742,3.7391181 66.2217638,3.86235429 C65.6701534,3.9855138 65.3228374,4.53252301 65.4460736,5.08405675 C65.5694632,5.63566718 66.1165491,5.98290644 66.6681595,5.85974693" id="Fill-179" fill="#FF5A5F"></path>
                <path d="M61.504816,59.5913497 C59.8906288,56.7954141 56.3152454,55.8375153 53.5194632,57.4517025 C50.7233742,59.0659663 49.7655521,62.6411196 51.379816,65.4371319 C52.9940031,68.2330675 56.5690798,69.1911196 59.3651687,67.5767791 C62.1610276,65.962592 63.1190798,62.387362 61.504816,59.5913497" id="Fill-181" fill="#FF5A5F"></path>
            </g>
        </g>
    </g>
</svg>

